# Blender 4.5.3 LTS
# www.blender.org
mtllib evangelion.mtl
o Plane
v -1.000000 1.000000 1.000000
v 0.000000 2.000000 0.000000
v 1.000000 1.000000 1.000000
v 0.000000 2.000000 0.000000
v 0.000000 2.000000 0.000000
v -1.000000 1.000000 -1.000000
v 1.000000 1.000000 -1.000000
v 0.000000 2.000000 0.000000
v 0.000000 0.000000 0.000000
v -1.000000 1.000000 1.000000
v 0.000000 0.000000 0.000000
v 1.000000 1.000000 1.000000
v -1.000000 1.000000 -1.000000
v 0.000000 0.000000 0.000000
v 0.000000 0.000000 0.000000
v 1.000000 1.000000 -1.000000
vn -0.7071 0.7071 -0.0000
vn -0.0000 0.7071 0.7071
vn 0.7071 0.7071 -0.0000
vn -0.0000 0.7071 -0.7071
vn -0.0000 1.0000 -0.0000
vn -0.7071 -0.7071 -0.0000
vn -0.0000 -0.7071 0.7071
vn 0.7071 -0.7071 -0.0000
vn -0.0000 -0.7071 -0.7071
vt 0.000000 1.000000
vt 0.000000 0.000000
vt 0.500000 0.500000
vt 1.000000 0.000000
vt 1.000000 1.000000
vt 0.000000 1.000000
vt 1.000000 0.000000
vt 1.000000 1.000000
s 0
f 6/1/1 1/2/1 2/3/1 5/3/1
f 1/2/2 3/4/2 4/3/2 2/3/2
f 3/4/3 7/5/3 8/3/3 4/3/3
f 7/5/4 6/1/4 5/3/4 8/3/4
f 2/3/5 4/3/5 8/3/5 5/3/5
f 14/3/6 9/3/6 10/2/6 13/6/6
f 9/3/7 11/3/7 12/7/7 10/2/7
f 11/3/8 15/3/8 16/8/8 12/7/8
f 15/3/9 14/3/9 13/6/9 16/8/9
f 13/6/5 10/2/5 1/2/5 6/1/5
f 9/3/5 14/3/5 15/3/5 11/3/5
f 10/2/5 12/7/5 3/4/5 1/2/5
f 12/7/5 16/8/5 7/5/5 3/4/5
f 16/8/5 13/6/5 6/1/5 7/5/5
